<svg width="351" height="290" viewBox="0 0 351 290" fill="none" xmlns="http://www.w3.org/2000/svg">
<path d="M194.658 198.573C189.997 205.117 188.062 209.064 186.516 216.892H218.404V204.001L254.702 226.051L218.404 246.744V233.853H186.516C188.113 241.598 189.395 245.457 194.658 251.833C199.387 257.777 202.426 260.4 208.227 264.384C214.052 267.565 217.375 268.911 223.493 269.812C233.087 270.281 238.255 269.994 246.561 267.098C254.325 263.628 258.19 261.466 263.522 255.225C268.895 249.822 269.968 246.744 273.021 239.62C274.676 234.509 275.205 231.503 275.056 226.051C275.223 220.664 274.449 217.551 273.099 212.119L273.021 211.803C270.403 204.762 268.097 201.236 263.522 195.181C258.1 189.774 254.424 187.22 246.561 183.647C238.274 181.03 233.263 180.419 223.493 181.272C215.489 183.15 212.277 184.354 208.227 186.7C202.354 190.021 199.405 192.673 194.658 198.573Z" fill="#0096DE"/>
<path d="M163.063 208.068C159.727 200.76 157.275 197.109 151.269 191.858L135.325 219.473L146.489 225.919L109.244 246.329L109.472 204.547L120.636 210.993L136.58 183.377C129.075 180.887 125.092 180.068 116.939 181.438C109.426 182.561 105.635 183.882 99.2842 186.914C93.6169 190.368 90.7899 192.572 86.9509 197.42C81.7477 205.494 79.4121 210.114 77.7672 218.754C76.8903 227.214 76.8303 231.642 79.5689 239.38C81.5615 246.734 83.6908 249.202 88.3337 255.408C91.9328 259.398 94.2713 261.358 99.0674 263.956C103.649 266.794 106.732 267.68 112.112 269.227L112.424 269.317C119.831 270.57 124.037 270.337 131.569 269.402C138.962 267.41 143.012 265.503 150.038 260.48C156.448 254.612 159.483 250.578 163.629 241.69C166.004 233.819 166.567 230.436 166.561 225.756C166.621 219.009 165.799 215.129 163.063 208.068Z" fill="#30B808"/>
<path d="M170.784 176.358C178.781 177.123 183.168 176.825 190.719 174.249L174.775 146.634L163.611 153.079L164.558 110.619L200.628 131.707L189.464 138.153L205.408 165.768C211.317 160.513 214.017 157.474 216.908 149.728C219.692 142.661 220.443 138.717 220.993 131.701C220.836 125.066 220.34 121.515 218.061 115.767C213.67 107.223 210.837 102.891 204.177 97.1462C197.289 92.1571 193.484 89.8909 185.414 88.3936C178.048 86.4423 174.846 87.0521 167.15 87.9699C161.896 89.0923 159.029 90.1372 154.381 92.9919C149.632 95.5412 147.324 97.7675 143.294 101.653L143.06 101.878C138.271 107.666 136.37 111.426 133.414 118.416C131.442 125.815 131.069 130.275 131.906 138.872C133.783 147.357 135.759 152.002 141.383 160.037C147.012 166.029 149.66 168.208 153.717 170.543C159.529 173.969 163.3 175.197 170.784 176.358Z" fill="#FF7D17"/>
<rect x="43" y="176" width="18" height="18" fill="black"/>
<rect x="61" y="176" width="18" height="18" fill="black"/>
<rect x="43" y="68" width="18" height="18" fill="black"/>
<rect x="61" y="158" width="18" height="18" fill="black"/>
<rect x="43" y="140" width="18" height="18" fill="black"/>
<rect x="61" y="122" width="18" height="18" fill="black"/>
<rect x="43" y="104" width="18" height="18" fill="black"/>
<rect x="61" y="86" width="18" height="18" fill="black"/>
<rect x="27.5" y="70.5" width="297" height="217" stroke="black" stroke-width="5" stroke-linejoin="round"/>
<rect x="2.5" y="2.5" width="346" height="63" stroke="black" stroke-width="5" stroke-linejoin="round"/>
</svg>
